HIERARCHY
ROOT Hips
{
	OFFSET 0.000000 83.214638 0.000000
	CHANNELS 6 Xposition Yposition Zposition Xrotation Yrotation Zrotation
	JOINT Pelvis
	{
		OFFSET 0.000000 0.000000 0.000000
		CHANNELS 3 Xrotation Yrotation Zrotation
		JOINT LeftUpLeg
		{
			OFFSET 8.479700 -4.795502 -0.379100
			CHANNELS 3 Xrotation Yrotation Zrotation
			JOINT LeftLeg
			{
				OFFSET 0.024144 -32.555107 0.112900
				CHANNELS 3 Xrotation Yrotation Zrotation
				JOINT LeftFoot
				{
					OFFSET -0.024144 -32.638630 -3.012600
					CHANNELS 3 Xrotation Yrotation Zrotation
					JOINT LeftToeBase
					{
						OFFSET 0.970200 -13.225400 11.864200
						CHANNELS 3 Xrotation Yrotation Zrotation
						End Site
						{
							OFFSET 0.000000 12.319262 0.000000
						}
					}
					JOINT LFootTongue
					{
						OFFSET 1.142400 -1.059800 6.665200
						CHANNELS 3 Xrotation Yrotation Zrotation
						End Site
						{
							OFFSET 0.000000 12.319262 0.000000
						}
					}
				}
				JOINT LeftPantLeg
				{
					OFFSET 0.918482 -16.533964 -2.284700
					CHANNELS 3 Xrotation Yrotation Zrotation
					End Site
					{
						OFFSET 0.350399 24.744368 0.000000
					}
				}
			}
		}
		JOINT RightUpLeg
		{
			OFFSET -8.479700 -4.795502 -0.379100
			CHANNELS 3 Xrotation Yrotation Zrotation
			JOINT RightLeg
			{
				OFFSET -0.023144 -32.555092 0.112900
				CHANNELS 3 Xrotation Yrotation Zrotation
				JOINT RightFoot
				{
					OFFSET 0.023144 -32.638641 -3.012700
					CHANNELS 3 Xrotation Yrotation Zrotation
					JOINT RightToeBase
					{
						OFFSET -0.970200 -13.225400 11.864200
						CHANNELS 3 Xrotation Yrotation Zrotation
						End Site
						{
							OFFSET 0.000000 12.319244 0.000000
						}
					}
					JOINT RFootTongue
					{
						OFFSET -1.142200 -1.059800 6.665200
						CHANNELS 3 Xrotation Yrotation Zrotation
						End Site
						{
							OFFSET 0.000000 12.319243 0.000000
						}
					}
				}
				JOINT RightPantLeg
				{
					OFFSET -0.919482 -16.533978 -2.284800
					CHANNELS 3 Xrotation Yrotation Zrotation
					End Site
					{
						OFFSET -0.350400 24.744419 0.000000
					}
				}
			}
		}
	}
	JOINT Spine
	{
		OFFSET 0.000000 7.722000 1.166200
		CHANNELS 3 Xrotation Yrotation Zrotation
		JOINT Spine1
		{
			OFFSET 0.000000 12.024101 0.248800
			CHANNELS 3 Xrotation Yrotation Zrotation
			JOINT Spine2
			{
				OFFSET 0.000000 11.502998 -0.491200
				CHANNELS 3 Xrotation Yrotation Zrotation
				JOINT Neck
				{
					OFFSET 0.000000 18.430702 -3.123100
					CHANNELS 3 Xrotation Yrotation Zrotation
					JOINT Head
					{
						OFFSET 0.000000 9.051102 1.034000
						CHANNELS 3 Xrotation Yrotation Zrotation
						JOINT HairB
						{
							OFFSET 0.208400 24.786102 24.822300
							CHANNELS 3 Xrotation Yrotation Zrotation
							End Site
							{
								OFFSET 0.000000 32.263779 0.000000
							}
						}
						JOINT HairA
						{
							OFFSET -7.081100 24.428299 23.196600
							CHANNELS 3 Xrotation Yrotation Zrotation
							End Site
							{
								OFFSET 0.000000 32.263779 0.000000
							}
						}
						JOINT Hat
						{
							OFFSET 16.728800 15.048294 -15.439601
							CHANNELS 3 Xrotation Yrotation Zrotation
							End Site
							{
								OFFSET 0.000000 32.263779 0.000000
							}
						}
					}
				}
				JOINT LeftShoulder
				{
					OFFSET 6.197800 13.665199 -4.064700
					CHANNELS 3 Xrotation Yrotation Zrotation
					JOINT LeftArm
					{
						OFFSET 7.778100 -0.187103 -1.709300
						CHANNELS 3 Xrotation Yrotation Zrotation
						JOINT LeftForeArm
						{
							OFFSET 22.049376 0.000000 0.000000
							CHANNELS 3 Xrotation Yrotation Zrotation
							JOINT LeftHand
							{
								OFFSET 23.009392 0.000000 0.000000
								CHANNELS 3 Xrotation Yrotation Zrotation
								JOINT LeftHandThumb1
								{
									OFFSET 3.507191 -2.063065 3.133727
									CHANNELS 3 Xrotation Yrotation Zrotation
									JOINT LeftHandThumb2
									{
										OFFSET 3.101337 -1.790558 1.790558
										CHANNELS 3 Xrotation Yrotation Zrotation
										JOINT LeftHandThumb3
										{
											OFFSET 3.058640 -1.765907 1.765906
											CHANNELS 3 Xrotation Yrotation Zrotation
											End Site
											{
												OFFSET -0.415260 3.926476 -0.049563
											}
										}
									}
								}
								JOINT LeftHandIndex1
								{
									OFFSET 11.334419 -0.901459 3.706815
									CHANNELS 3 Xrotation Yrotation Zrotation
									JOINT LeftHandIndex2
									{
										OFFSET 3.283112 0.000000 0.000000
										CHANNELS 3 Xrotation Yrotation Zrotation
										JOINT LeftHandIndex3
										{
											OFFSET 3.323853 0.000000 0.000000
											CHANNELS 3 Xrotation Yrotation Zrotation
											End Site
											{
												OFFSET -1.135597 3.097809 0.402452
											}
										}
									}
								}
								JOINT LeftHandMiddle1
								{
									OFFSET 11.335861 0.000000 0.000000
									CHANNELS 3 Xrotation Yrotation Zrotation
									JOINT LeftHandMiddle2
									{
										OFFSET 3.410492 0.000000 0.000000
										CHANNELS 3 Xrotation Yrotation Zrotation
										JOINT LeftHandMiddle3
										{
											OFFSET 3.312172 0.000000 0.000000
											CHANNELS 3 Xrotation Yrotation Zrotation
											End Site
											{
												OFFSET -1.150200 3.080154 0.400270
											}
										}
									}
								}
								JOINT LeftHandRing1
								{
									OFFSET 11.514786 -0.013176 -3.003090
									CHANNELS 3 Xrotation Yrotation Zrotation
									JOINT LeftHandRing2
									{
										OFFSET 3.053307 0.000000 0.000000
										CHANNELS 3 Xrotation Yrotation Zrotation
										JOINT LeftHandRing3
										{
											OFFSET 3.295807 0.000000 0.000000
											CHANNELS 3 Xrotation Yrotation Zrotation
											End Site
											{
												OFFSET -1.281006 3.013344 0.375733
											}
										}
									}
								}
								JOINT LeftHandPinky1
								{
									OFFSET 10.518692 -0.960396 -5.730441
									CHANNELS 3 Xrotation Yrotation Zrotation
									JOINT LeftHandPinky2
									{
										OFFSET 2.861649 0.000000 0.000000
										CHANNELS 3 Xrotation Yrotation Zrotation
										JOINT LeftHandPinky3
										{
											OFFSET 2.863380 0.000000 0.000000
											CHANNELS 3 Xrotation Yrotation Zrotation
											End Site
											{
												OFFSET -0.843597 2.711159 0.369971
											}
										}
									}
								}
							}
							JOINT LSleeve
							{
								OFFSET 6.676277 -0.344902 -1.011730
								CHANNELS 3 Xrotation Yrotation Zrotation
								End Site
								{
									OFFSET 0.000000 14.885353 0.000000
								}
							}
						}
					}
				}
				JOINT RightShoulder
				{
					OFFSET -6.197800 13.665199 -4.064700
					CHANNELS 3 Xrotation Yrotation Zrotation
					JOINT RightArm
					{
						OFFSET -7.778100 -0.187103 -1.709300
						CHANNELS 3 Xrotation Yrotation Zrotation
						JOINT RightForeArm
						{
							OFFSET -22.049376 0.000000 0.000000
							CHANNELS 3 Xrotation Yrotation Zrotation
							JOINT RightHand
							{
								OFFSET -23.009392 0.000000 0.000000
								CHANNELS 3 Xrotation Yrotation Zrotation
								JOINT RightHandThumb1
								{
									OFFSET -3.507191 -2.063065 3.133727
									CHANNELS 3 Xrotation Yrotation Zrotation
									JOINT RightHandThumb2
									{
										OFFSET -3.101337 -1.790558 1.790558
										CHANNELS 3 Xrotation Yrotation Zrotation
										JOINT RightHandThumb3
										{
											OFFSET -3.058640 -1.765907 1.765906
											CHANNELS 3 Xrotation Yrotation Zrotation
											End Site
											{
												OFFSET 0.415260 3.926476 -0.049563
											}
										}
									}
								}
								JOINT RightHandIndex1
								{
									OFFSET -11.334419 -0.901459 3.706815
									CHANNELS 3 Xrotation Yrotation Zrotation
									JOINT RightHandIndex2
									{
										OFFSET -3.283112 0.000000 0.000000
										CHANNELS 3 Xrotation Yrotation Zrotation
										JOINT RightHandIndex3
										{
											OFFSET -3.323853 0.000000 0.000000
											CHANNELS 3 Xrotation Yrotation Zrotation
											End Site
											{
												OFFSET 1.135597 3.097809 0.402452
											}
										}
									}
								}
								JOINT RightHandMiddle1
								{
									OFFSET -11.335861 0.000000 0.000000
									CHANNELS 3 Xrotation Yrotation Zrotation
									JOINT RightHandMiddle2
									{
										OFFSET -3.410492 0.000000 0.000000
										CHANNELS 3 Xrotation Yrotation Zrotation
										JOINT RightHandMiddle3
										{
											OFFSET -3.312172 0.000000 0.000000
											CHANNELS 3 Xrotation Yrotation Zrotation
											End Site
											{
												OFFSET 1.150200 3.080154 0.400270
											}
										}
									}
								}
								JOINT RightHandRing1
								{
									OFFSET -11.514786 -0.013176 -3.003090
									CHANNELS 3 Xrotation Yrotation Zrotation
									JOINT RightHandRing2
									{
										OFFSET -3.053307 0.000000 0.000000
										CHANNELS 3 Xrotation Yrotation Zrotation
										JOINT RightHandRing3
										{
											OFFSET -3.295807 0.000000 0.000000
											CHANNELS 3 Xrotation Yrotation Zrotation
											End Site
											{
												OFFSET 1.281006 3.013344 0.375733
											}
										}
									}
								}
								JOINT RightHandPinky1
								{
									OFFSET -10.518692 -0.960396 -5.730441
									CHANNELS 3 Xrotation Yrotation Zrotation
									JOINT RightHandPinky2
									{
										OFFSET -2.861649 0.000000 0.000000
										CHANNELS 3 Xrotation Yrotation Zrotation
										JOINT RightHandPinky3
										{
											OFFSET -2.863380 0.000000 0.000000
											CHANNELS 3 Xrotation Yrotation Zrotation
											End Site
											{
												OFFSET 0.843597 2.711159 0.369971
											}
										}
									}
								}
							}
							JOINT RSleeve
							{
								OFFSET -6.676277 -0.344902 -1.011730
								CHANNELS 3 Xrotation Yrotation Zrotation
								End Site
								{
									OFFSET 0.000000 14.885353 0.000000
								}
							}
						}
					}
				}
				JOINT Backpack
				{
					OFFSET 0.000000 -2.471497 36.677502
					CHANNELS 3 Xrotation Yrotation Zrotation
					End Site
					{
						OFFSET 0.000000 20.427315 0.000000
					}
				}
				JOINT Hood
				{
					OFFSET 0.000000 18.754097 -10.431000
					CHANNELS 3 Xrotation Yrotation Zrotation
					JOINT Hood1
					{
						OFFSET 0.000000 -5.011002 -7.685901
						CHANNELS 3 Xrotation Yrotation Zrotation
						End Site
						{
							OFFSET 0.000000 9.175140 0.000000
						}
					}
				}
				JOINT LHoodieString
				{
					OFFSET 5.250500 16.397697 3.089900
					CHANNELS 3 Xrotation Yrotation Zrotation
					JOINT LHoodieString1
					{
						OFFSET 0.257700 -6.364304 3.694600
						CHANNELS 3 Xrotation Yrotation Zrotation
						JOINT LHoodieString2
						{
							OFFSET 0.000000 -9.643799 2.679100
							CHANNELS 3 Xrotation Yrotation Zrotation
							End Site
							{
								OFFSET 0.000000 10.009018 0.000000
							}
						}
					}
				}
				JOINT RHoodieString
				{
					OFFSET -5.250500 16.397697 3.089900
					CHANNELS 3 Xrotation Yrotation Zrotation
					JOINT RHoodieString1
					{
						OFFSET -0.257700 -6.364304 3.694600
						CHANNELS 3 Xrotation Yrotation Zrotation
						JOINT RHoodieString2
						{
							OFFSET 0.000000 -9.643799 2.679100
							CHANNELS 3 Xrotation Yrotation Zrotation
							End Site
							{
								OFFSET 0.000000 10.009018 0.000000
							}
						}
					}
				}
			}
			JOINT LBackpack_Strap
			{
				OFFSET 15.223200 -7.719803 -6.610900
				CHANNELS 3 Xrotation Yrotation Zrotation
				End Site
				{
					OFFSET 0.000000 16.040596 0.000000
				}
			}
			JOINT RBackpack_Strap
			{
				OFFSET -15.223000 -7.719803 -6.610900
				CHANNELS 3 Xrotation Yrotation Zrotation
				End Site
				{
					OFFSET 0.000000 16.040596 0.000000
				}
			}
		}
	}
	JOINT BoyFacialAnim_Joint
	{
		OFFSET 1.000000 -82.208099 -1.550900
		CHANNELS 3 Xrotation Yrotation Zrotation
		End Site
		{
			OFFSET 0.000000 30.012791 0.000000
		}
	}
}
MOTION
Frames: 4
Frame Time: 0.016667
3.117863 80.768845 74.964127 -171.513112 67.262207 178.237065 0.000000 -0.000000 0.000000 -25.982659 9.708999 5.907461 32.772750 4.282016 2.794691 -2.267267 1.380129 -13.903591 0.000000 -0.000001 -0.000000 0.000000 -0.000001 -0.000000 -0.000000 0.000000 -0.000001 -6.622268 -10.148322 -12.692870 27.579464 -9.404874 -2.942482 -17.135157 -4.956781 9.961121 0.000000 -0.000000 0.000000 0.000000 -0.000000 0.000000 0.000001 -0.000000 -0.000001 10.482525 -3.412558 -6.236460 5.905952 -0.746153 -0.137392 5.913743 -0.679944 -0.131286 -10.724004 -0.020888 2.039223 -4.215061 13.545557 -3.367740 -0.000000 0.000001 -0.000000 -0.000000 0.000001 -0.000000 -0.000000 0.000001 -0.000000 4.565329 8.264140 -9.764208 -7.251022 -13.343452 -59.256488 0.000009 -11.301082 -0.000023 9.160502 -15.323026 -1.192312 -3.469772 3.607318 7.883176 9.703641 22.223513 2.891203 -0.000000 0.000000 0.000004 0.162356 3.429615 -10.498172 0.209652 1.554737 -15.358572 -0.000000 -0.000000 -0.000004 0.362540 4.206377 -18.344213 0.474608 2.311793 -23.200247 -0.000000 -0.000001 0.000002 0.689031 4.991706 -26.673256 0.865730 3.066785 -31.521456 -0.000001 0.000001 -0.000000 0.902511 5.377879 -30.995357 1.110592 3.433634 -35.838160 -0.000001 0.000001 -0.000002 -0.000001 -0.000000 0.000002 1.424808 6.319831 17.460016 -2.214350 -4.391926 64.929875 0.000017 27.167094 -0.000013 -23.146961 -17.077642 -15.152664 -1.986172 -5.435665 -3.761605 8.766485 -20.697678 -3.062076 0.000002 -0.000002 -0.000004 2.057131 -6.108278 55.293561 5.419364 -4.594528 99.429407 0.000001 0.000001 0.000000 2.592853 -6.426562 62.973408 4.946639 -4.648184 93.567315 -0.000001 0.000001 -0.000002 2.854992 -6.549357 66.538569 4.919139 -4.649819 93.228209 -0.000002 0.000001 -0.000001 1.542113 -5.696817 47.168204 2.898968 -4.313226 67.797346 -0.000001 -0.000001 0.000000 -0.000001 -0.000001 0.000000 -0.000000 -0.000001 -0.000000 -0.000000 -0.000001 -0.000000 -0.000000 -0.000001 -0.000000 -0.000000 -0.000001 -0.000000 -0.000000 -0.000001 0.000000 -0.000000 -0.000001 0.000000 -0.000000 -0.000001 -0.000000 -0.000000 -0.000001 0.000000 -0.000000 -0.000001 0.000000 -0.000000 -0.000001 -0.000000 -0.000000 -0.000001 -0.000000 0.000000 -0.000000 0.000000 
3.268375 80.699516 74.605118 -172.159945 65.359590 178.883938 -0.000000 -0.000002 -0.000001 -25.566226 9.524704 5.989931 31.459534 5.227792 3.061903 -2.540938 1.736958 -13.323129 0.000000 0.000001 -0.000000 0.000000 0.000001 0.000000 -0.000000 0.000003 -0.000000 -5.964945 -10.671364 -12.712260 27.347451 -9.393588 -2.910322 -17.253796 -6.486129 10.154534 0.000000 0.000000 0.000000 0.000000 0.000000 0.000000 -0.000002 -0.000001 -0.000001 10.524425 -3.389261 -6.427886 5.937752 -0.731592 -0.053678 5.944719 -0.659890 -0.046720 -10.723265 -0.058135 2.025080 -4.160083 14.345672 -3.272150 -0.000000 0.000001 -0.000000 -0.000000 0.000001 -0.000000 -0.000000 0.000001 -0.000000 4.439884 8.094348 -9.464047 -6.237167 -11.834761 -59.241680 0.000003 -11.844600 0.000007 9.598143 -13.812540 -2.183863 -3.469770 3.607319 7.883176 9.703641 22.223509 2.891200 0.000001 0.000000 -0.000002 0.162357 3.429614 -10.498172 0.209652 1.554737 -15.358572 0.000001 0.000000 -0.000002 0.362541 4.206376 -18.344215 0.474609 2.311794 -23.200247 -0.000001 -0.000001 -0.000000 0.689034 4.991707 -26.673256 0.865729 3.066787 -31.521456 -0.000001 0.000000 0.000001 0.902511 5.377878 -30.995357 1.110593 3.433634 -35.838160 -0.000000 0.000000 -0.000002 -0.000000 0.000000 0.000001 1.440128 6.247025 17.504245 -2.407546 -5.275738 64.582512 0.000015 26.607760 -0.000011 -21.465300 -16.875369 -14.388033 -1.986174 -5.435664 -3.761600 8.766485 -20.697678 -3.062078 -0.000003 -0.000002 0.000000 2.057131 -6.108277 55.293564 5.419362 -4.594528 99.429413 0.000000 0.000000 0.000000 2.592853 -6.426559 62.973415 4.946636 -4.648184 93.567322 0.000001 0.000001 -0.000002 2.854993 -6.549356 66.538576 4.919139 -4.649818 93.228209 -0.000001 -0.000000 0.000000 1.542113 -5.696815 47.168204 2.898969 -4.313227 67.797346 -0.000000 -0.000001 0.000000 0.000001 -0.000000 0.000000 0.000000 0.000001 0.000000 0.000000 0.000001 0.000000 0.000000 0.000001 0.000000 0.000000 0.000001 0.000000 0.000000 0.000001 0.000001 -0.000001 -0.000001 0.000000 0.000000 0.000001 0.000000 0.000000 0.000001 0.000001 -0.000001 -0.000001 0.000000 0.000001 0.000001 0.000000 0.000001 0.000001 0.000000 -0.000000 -0.000002 -0.000001 
3.425596 80.625694 74.190079 -172.648276 63.460230 179.373158 -0.000000 -0.000001 -0.000000 -25.010735 9.276427 6.019714 30.021239 5.953274 3.284060 -2.657738 2.211216 -12.801660 0.000000 0.000001 0.000000 0.000000 0.000001 0.000000 0.000000 0.000000 0.000001 -5.209927 -11.212053 -12.738048 27.037166 -9.394316 -2.872204 -17.343578 -7.994659 10.397212 -0.000000 -0.000000 -0.000000 -0.000000 -0.000000 -0.000000 -0.000001 -0.000000 -0.000001 10.594976 -3.348540 -6.640821 5.956439 -0.710473 0.027103 5.962348 -0.633105 0.034883 -10.724159 -0.096664 2.008867 -4.103969 15.186874 -3.159080 0.000000 -0.000001 0.000000 0.000000 -0.000001 0.000000 0.000000 -0.000001 0.000000 4.315410 7.926130 -9.159261 -5.366276 -10.439498 -59.331149 -0.000002 -12.405899 0.000006 10.104751 -12.230441 -3.230670 -3.469769 3.607319 7.883174 9.703642 22.223515 2.891206 -0.000001 -0.000000 -0.000003 0.162357 3.429613 -10.498170 0.209652 1.554736 -15.358570 -0.000000 0.000000 -0.000002 0.362541 4.206376 -18.344215 0.474611 2.311795 -23.200252 0.000000 -0.000000 -0.000002 0.689033 4.991706 -26.673256 0.865729 3.066785 -31.521456 -0.000000 0.000000 -0.000006 0.902511 5.377878 -30.995354 1.110593 3.433635 -35.838166 0.000001 0.000001 -0.000000 -0.000001 -0.000001 -0.000001 1.452239 6.186894 17.530464 -2.514462 -6.093110 64.276158 -0.000010 26.010574 0.000016 -19.830682 -16.637562 -13.686427 -1.986173 -5.435663 -3.761599 8.766486 -20.697679 -3.062076 -0.000001 -0.000002 0.000003 2.057130 -6.108277 55.293557 5.419363 -4.594527 99.429420 0.000000 -0.000001 0.000005 2.592852 -6.426557 62.973415 4.946637 -4.648184 93.567308 -0.000002 0.000001 -0.000004 2.854993 -6.549355 66.538569 4.919139 -4.649818 93.228209 -0.000001 -0.000002 0.000002 1.542113 -5.696815 47.168200 2.898969 -4.313226 67.797346 0.000001 -0.000000 0.000002 -0.000001 0.000001 -0.000001 0.000001 0.000004 -0.000000 0.000001 0.000004 -0.000000 0.000001 0.000004 -0.000000 0.000001 0.000004 -0.000000 0.000001 0.000004 -0.000001 0.000000 0.000000 -0.000000 0.000001 0.000004 -0.000000 0.000001 0.000004 -0.000001 0.000000 0.000000 -0.000000 -0.000001 -0.000001 -0.000000 -0.000001 -0.000001 -0.000000 -0.000000 -0.000001 -0.000000 
3.586857 80.545570 73.718483 -173.030220 61.574292 179.759828 -0.000000 0.000001 -0.000000 -24.352143 8.994888 5.999167 28.510178 6.501975 3.467116 -2.584648 2.794844 -12.437489 -0.000000 -0.000002 -0.000000 -0.000000 -0.000002 -0.000000 0.000000 0.000001 0.000000 -4.360320 -11.766006 -12.769352 26.638098 -9.403197 -2.828615 -17.413489 -9.495895 10.694492 0.000000 0.000000 0.000000 0.000000 0.000000 0.000000 0.000001 0.000001 0.000000 10.678424 -3.293284 -6.871830 5.960721 -0.683470 0.100001 5.965380 -0.600644 0.108445 -10.728265 -0.136328 1.990619 -4.053718 16.057577 -3.028832 -0.000000 0.000001 -0.000000 -0.000000 0.000001 -0.000000 -0.000000 0.000001 -0.000000 4.191115 7.756939 -8.850423 -4.627764 -9.151179 -59.511725 -0.000003 -12.942802 0.000017 10.682215 -10.597910 -4.326579 -3.469772 3.607319 7.883173 9.703641 22.223515 2.891201 0.000001 -0.000000 -0.000002 0.162356 3.429613 -10.498171 0.209651 1.554736 -15.358570 -0.000001 0.000000 -0.000002 0.362540 4.206375 -18.344215 0.474609 2.311794 -23.200250 -0.000001 0.000000 -0.000003 0.689032 4.991706 -26.673256 0.865729 3.066785 -31.521456 -0.000000 0.000000 0.000001 0.902511 5.377879 -30.995357 1.110593 3.433634 -35.838160 -0.000001 0.000000 -0.000000 -0.000002 -0.000000 -0.000001 1.460382 6.141546 17.531885 -2.497086 -6.813977 64.020353 0.000004 25.388713 0.000009 -18.293275 -16.391190 -13.073722 -1.986174 -5.435663 -3.761597 8.766485 -20.697674 -3.062074 -0.000001 0.000001 -0.000002 2.057131 -6.108276 55.293564 5.419364 -4.594527 99.429413 -0.000000 0.000000 -0.000002 2.592853 -6.426559 62.973415 4.946637 -4.648184 93.567315 -0.000001 -0.000000 0.000003 2.854993 -6.549356 66.538576 4.919139 -4.649817 93.228209 -0.000002 0.000001 0.000000 1.542112 -5.696814 47.168200 2.898967 -4.313227 67.797346 -0.000001 -0.000000 0.000002 0.000001 0.000001 -0.000000 0.000000 -0.000001 -0.000000 0.000000 -0.000001 -0.000000 0.000000 -0.000001 -0.000000 0.000000 -0.000001 -0.000000 0.000000 -0.000001 -0.000001 -0.000002 -0.000003 0.000000 0.000000 -0.000001 -0.000000 0.000000 -0.000001 -0.000001 -0.000002 -0.000003 0.000000 0.000000 0.000001 -0.000000 0.000000 0.000001 -0.000000 -0.000000 0.000001 -0.000000 
